<svg width="250" height="90" viewBox="0 0 250 90" fill="none" xmlns="http://www.w3.org/2000/svg">
<g clip-path="url(#clip0_405_16657)">
<path d="M217.939 80.7452C218.064 80.0454 218.388 79.4836 218.913 79.0568C219.438 78.63 220.135 78.4197 221.01 78.4197C221.217 78.4197 221.446 78.4354 221.698 78.4668C221.949 78.4982 222.178 78.5515 222.382 78.6206C222.589 78.6896 222.754 78.7806 222.882 78.8936C223.009 79.0066 223.057 79.1478 223.025 79.3204C222.999 79.4711 222.92 79.606 222.789 79.7253C222.659 79.8445 222.506 79.9041 222.331 79.9041C222.245 79.9041 222.15 79.8759 222.051 79.8225C221.892 79.7378 221.726 79.6656 221.558 79.6123C221.386 79.5589 221.154 79.5307 220.861 79.5307C219.89 79.5307 219.336 79.9073 219.2 80.6605C219.155 80.9084 219.177 81.1061 219.263 81.2568C219.352 81.4074 219.524 81.5517 219.782 81.693C220.04 81.8342 220.336 81.9566 220.667 82.0633C220.998 82.17 221.3 82.3206 221.577 82.5089C221.854 82.6972 222.073 82.942 222.232 83.2433C222.391 83.5446 222.423 83.9588 222.328 84.486C222.197 85.2173 221.863 85.7947 221.332 86.2153C220.797 86.6358 220.072 86.8461 219.155 86.8461C218.948 86.8461 218.706 86.8335 218.433 86.8053C218.159 86.777 217.904 86.7299 217.672 86.6609C217.44 86.5919 217.246 86.4946 217.093 86.369C216.94 86.2466 216.88 86.0929 216.915 85.9077C216.94 85.7665 217.017 85.6347 217.141 85.5123C217.268 85.3899 217.427 85.3271 217.624 85.3271C217.678 85.3271 217.714 85.3271 217.729 85.3365C217.745 85.3428 217.761 85.3491 217.784 85.3616C217.997 85.4464 218.232 85.5311 218.484 85.6127C218.735 85.6943 219.028 85.7351 219.356 85.7351C219.814 85.7351 220.196 85.6409 220.504 85.4526C220.81 85.2644 221.001 84.9599 221.077 84.5394C221.128 84.2475 221.109 84.031 221.014 83.8866C220.918 83.7423 220.797 83.6262 220.651 83.5383C220.415 83.3971 220.122 83.2747 219.776 83.168C219.429 83.0613 219.104 82.9138 218.805 82.7317C218.506 82.5497 218.261 82.3049 218.076 82.0037C217.889 81.7024 217.844 81.2819 217.943 80.7452M213.204 81.1971C213.284 80.7452 213.23 80.3623 213.042 80.0516C212.851 79.741 212.507 79.584 212.004 79.584C211.654 79.584 211.301 79.6656 210.945 79.8257C210.588 79.9857 210.289 80.1929 210.047 80.4408C210.057 80.6887 210.041 80.9304 210 81.1689L209.096 86.2247C209.064 86.3973 208.988 86.5416 208.864 86.6609C208.739 86.7801 208.568 86.8398 208.348 86.8398C208.128 86.8398 207.979 86.7801 207.896 86.6609C207.813 86.5416 207.788 86.3973 207.82 86.2247L208.66 81.5392C208.711 81.2473 208.743 80.9837 208.752 80.7483C208.762 80.513 208.733 80.3058 208.666 80.1332C208.599 79.9606 208.485 79.8257 208.329 79.7284C208.173 79.6311 207.947 79.584 207.651 79.584C207.292 79.584 206.929 79.6499 206.569 79.7786C206.206 79.9073 205.898 80.0579 205.637 80.2305C205.637 80.4251 205.621 80.5914 205.595 80.7327L204.612 86.2247C204.58 86.3973 204.504 86.5416 204.38 86.6609C204.256 86.7801 204.084 86.8398 203.864 86.8398C203.645 86.8398 203.495 86.7801 203.412 86.6609C203.33 86.5416 203.304 86.3973 203.336 86.2247L204.319 80.7327C204.361 80.5067 204.383 80.3341 204.386 80.2148C204.392 80.0956 204.386 79.9983 204.373 79.923C204.361 79.8477 204.338 79.7912 204.307 79.7535C204.275 79.7158 204.249 79.6656 204.227 79.5997C204.211 79.5683 204.195 79.5275 204.176 79.4773C204.157 79.4303 204.157 79.3612 204.173 79.2765C204.202 79.1164 204.284 78.9815 204.418 78.8716C204.552 78.7649 204.708 78.7116 204.879 78.7116C205.023 78.7116 205.137 78.7524 205.226 78.834C205.315 78.9156 205.392 79.0191 205.455 79.1478C205.856 78.9219 206.27 78.743 206.696 78.6143C207.123 78.4856 207.549 78.4197 207.976 78.4197C208.434 78.4197 208.8 78.4888 209.077 78.63C209.35 78.7712 209.57 78.9752 209.729 79.2451C210.124 78.9878 210.528 78.7838 210.942 78.6394C211.355 78.495 211.791 78.4229 212.25 78.4229C213.134 78.4229 213.764 78.6771 214.143 79.1823C214.522 79.6876 214.639 80.3498 214.493 81.1689L213.589 86.2247C213.557 86.3973 213.481 86.5416 213.357 86.6609C213.233 86.7801 213.061 86.8398 212.841 86.8398C212.622 86.8398 212.472 86.7801 212.39 86.6609C212.307 86.5416 212.281 86.3973 212.313 86.2247L213.214 81.2003L213.204 81.1971ZM199.778 81.0528C199.874 80.5255 199.813 80.1458 199.597 79.9136C199.38 79.6813 199.034 79.5652 198.553 79.5652C198.018 79.5652 197.579 79.697 197.239 79.9606C196.898 80.2242 196.685 80.582 196.605 81.0339L196.386 82.261C196.685 82.3049 197 82.3332 197.337 82.3489C197.671 82.3646 197.923 82.374 198.085 82.374C198.391 82.374 198.645 82.3363 198.852 82.261C199.056 82.1857 199.224 82.0853 199.355 81.9629C199.485 81.8405 199.584 81.6961 199.645 81.5361C199.705 81.376 199.753 81.2128 199.781 81.0528H199.778ZM197.547 85.7351C197.897 85.7351 198.206 85.6912 198.47 85.6064C198.738 85.5217 199.024 85.4118 199.329 85.2832C199.352 85.2738 199.387 85.2612 199.425 85.2518C199.466 85.2424 199.511 85.2361 199.568 85.2361C199.73 85.2361 199.858 85.2926 199.947 85.4056C200.036 85.5186 200.068 85.6504 200.039 85.801C200.004 85.9956 199.88 86.1588 199.664 86.2937C199.447 86.4287 199.196 86.5354 198.903 86.617C198.61 86.6985 198.308 86.7582 197.996 86.7958C197.684 86.8335 197.417 86.8523 197.201 86.8523C196.742 86.8523 196.341 86.7864 196.001 86.6515C195.66 86.5165 195.387 86.3282 195.186 86.0866C194.982 85.8449 194.846 85.5593 194.776 85.2298C194.702 84.9003 194.702 84.5488 194.769 84.1722L195.31 81.1532C195.38 80.764 195.511 80.4063 195.702 80.0705C195.893 79.7378 196.134 79.4491 196.43 79.2074C196.726 78.9658 197.07 78.7744 197.468 78.6331C197.866 78.4919 198.308 78.4229 198.798 78.4229C199.715 78.4229 200.354 78.6582 200.717 79.1321C201.08 79.606 201.188 80.2462 201.045 81.0528C200.911 81.7965 200.593 82.3803 200.084 82.8039C199.578 83.2307 198.83 83.441 197.85 83.441C197.598 83.441 197.331 83.4316 197.045 83.4096C196.758 83.3876 196.478 83.35 196.204 83.2966L196.033 84.2507C195.953 84.7026 196.036 85.0635 196.29 85.3334C196.542 85.6033 196.962 85.7382 197.554 85.7382L197.547 85.7351ZM190.056 76.6905C190.088 76.5179 190.168 76.3736 190.298 76.2543C190.429 76.135 190.597 76.0754 190.804 76.0754C191.011 76.0754 191.161 76.135 191.246 76.2543C191.336 76.3736 191.364 76.5179 191.332 76.6905L190.935 78.9187H192.637C192.799 78.9187 192.93 78.9752 193.025 79.0882C193.121 79.2012 193.153 79.3455 193.121 79.515C193.089 79.6876 193.006 79.8288 192.873 79.9418C192.739 80.0548 192.589 80.1113 192.424 80.1113H190.721L190.145 83.3249C190.069 83.7454 190.021 84.0969 189.996 84.3825C189.974 84.6681 189.996 84.9034 190.059 85.0855C190.126 85.2675 190.238 85.3993 190.397 85.4809C190.556 85.5625 190.785 85.6033 191.081 85.6033C191.135 85.6033 191.189 85.6033 191.237 85.5939C191.288 85.5876 191.339 85.5845 191.393 85.5845C191.492 85.5845 191.587 85.5907 191.686 85.6001C191.781 85.6096 191.867 85.6378 191.94 85.6817C192.013 85.7257 192.071 85.7853 192.112 85.8606C192.153 85.9359 192.163 86.0395 192.138 86.1682C192.112 86.3094 192.064 86.4192 191.997 86.4977C191.927 86.5793 191.848 86.6389 191.752 86.6829C191.657 86.7268 191.552 86.7519 191.434 86.7645C191.316 86.7739 191.205 86.7801 191.097 86.7801C190.518 86.7801 190.059 86.7111 189.719 86.5699C189.378 86.4287 189.127 86.2184 188.965 85.9391C188.802 85.6598 188.717 85.3114 188.71 84.8972C188.704 84.4829 188.748 83.9965 188.85 83.4347L190.059 76.6843L190.056 76.6905ZM181.318 80.7452C181.442 80.0454 181.766 79.4836 182.292 79.0568C182.817 78.63 183.514 78.4197 184.389 78.4197C184.595 78.4197 184.825 78.4354 185.076 78.4668C185.327 78.4982 185.557 78.5515 185.76 78.6206C185.967 78.6896 186.133 78.7806 186.26 78.8936C186.387 79.0066 186.435 79.1478 186.403 79.3204C186.378 79.4711 186.298 79.606 186.168 79.7253C186.037 79.8445 185.884 79.9041 185.709 79.9041C185.623 79.9041 185.528 79.8759 185.429 79.8225C185.27 79.7378 185.105 79.6656 184.936 79.6123C184.764 79.5589 184.532 79.5307 184.239 79.5307C183.268 79.5307 182.715 79.9073 182.578 80.6605C182.533 80.9084 182.556 81.1061 182.642 81.2568C182.731 81.4074 182.903 81.5517 183.16 81.693C183.418 81.8342 183.714 81.9566 184.045 82.0633C184.376 82.17 184.678 82.3206 184.955 82.5089C185.232 82.6972 185.452 82.942 185.611 83.2433C185.77 83.5446 185.802 83.9588 185.706 84.486C185.576 85.2173 185.242 85.7947 184.71 86.2153C184.175 86.6358 183.45 86.8461 182.533 86.8461C182.327 86.8461 182.085 86.8335 181.811 86.8053C181.537 86.777 181.283 86.7299 181.05 86.6609C180.818 86.5919 180.624 86.4946 180.471 86.369C180.319 86.2466 180.258 86.0929 180.293 85.9077C180.319 85.7665 180.395 85.6347 180.519 85.5123C180.646 85.3899 180.805 85.3271 181.003 85.3271C181.057 85.3271 181.092 85.3271 181.108 85.3365C181.124 85.3428 181.14 85.3491 181.162 85.3616C181.375 85.4464 181.611 85.5311 181.862 85.6127C182.113 85.6943 182.406 85.7351 182.734 85.7351C183.192 85.7351 183.574 85.6409 183.883 85.4526C184.188 85.2644 184.379 84.9599 184.455 84.5394C184.506 84.2475 184.487 84.031 184.392 83.8866C184.296 83.7423 184.175 83.6262 184.029 83.5383C183.794 83.3971 183.501 83.2747 183.154 83.168C182.807 83.0613 182.486 82.9138 182.183 82.7317C181.884 82.5497 181.639 82.3049 181.455 82.0037C181.267 81.7024 181.222 81.2819 181.321 80.7452H181.318ZM176.038 85.7037C175.726 86.3376 175.431 86.9151 175.147 87.4329C174.864 87.9507 174.559 88.3964 174.228 88.773C173.897 89.1496 173.534 89.4446 173.136 89.6611C172.738 89.8776 172.271 89.9906 171.733 90C171.548 90 171.402 89.9435 171.297 89.8306C171.192 89.7176 171.157 89.5701 171.189 89.3849C171.214 89.2343 171.294 89.0993 171.424 88.9801C171.555 88.8608 171.714 88.7981 171.901 88.7855C172.166 88.7761 172.401 88.729 172.605 88.6474C172.812 88.5658 173.006 88.4434 173.187 88.2771C173.368 88.1108 173.547 87.8974 173.718 87.64C173.89 87.3827 174.069 87.0626 174.256 86.686L172.98 79.2733C172.961 79.2514 172.958 79.2169 172.967 79.1698C172.977 79.1227 172.983 79.0819 172.99 79.0474C173.022 78.8748 173.104 78.7367 173.244 78.6269C173.384 78.5202 173.547 78.4668 173.731 78.4668C173.852 78.4668 173.957 78.5013 174.049 78.5704C174.142 78.6394 174.202 78.7461 174.231 78.8842L175.182 85.007L178.062 78.8842C178.142 78.743 178.244 78.6394 178.365 78.5704C178.486 78.5013 178.606 78.4668 178.727 78.4668C178.89 78.4668 179.027 78.5264 179.138 78.6457C179.249 78.7649 179.287 78.9156 179.252 79.0976C179.246 79.1415 179.224 79.2043 179.186 79.2922L176.038 85.7037ZM168.916 83.6356C168.964 83.3782 168.974 83.1554 168.945 82.9734C168.916 82.7914 168.872 82.6345 168.808 82.5058C168.745 82.3771 168.662 82.2736 168.56 82.1982C168.458 82.1229 168.363 82.057 168.277 82.0037C168.038 81.875 167.771 81.7589 167.478 81.6553C167.185 81.5517 166.892 81.4419 166.597 81.3227C166.301 81.2034 166.021 81.0716 165.75 80.9272C165.483 80.7829 165.25 80.5946 165.056 80.3623C164.862 80.1301 164.729 79.8508 164.649 79.5213C164.573 79.1917 164.576 78.7932 164.659 78.3193C164.834 77.3402 165.266 76.5681 165.957 76.0095C166.647 75.4509 167.503 75.1685 168.531 75.1685C168.738 75.1685 168.999 75.1841 169.308 75.2155C169.617 75.2469 169.916 75.3034 170.202 75.385C170.488 75.4666 170.724 75.5764 170.912 75.7177C171.099 75.8589 171.173 76.0409 171.131 76.2669C171.103 76.4269 171.02 76.5713 170.883 76.6937C170.746 76.8161 170.574 76.8788 170.368 76.8788C170.237 76.8788 170.116 76.8537 170.005 76.8066C169.893 76.7596 169.763 76.7062 169.613 76.6529C169.464 76.5995 169.295 76.5493 169.101 76.4991C168.907 76.452 168.675 76.4269 168.401 76.4269C168.127 76.4269 167.879 76.4552 167.624 76.5148C167.367 76.5744 167.131 76.6717 166.918 76.8066C166.702 76.9416 166.517 77.1236 166.361 77.3558C166.205 77.5881 166.094 77.8799 166.03 78.2346C165.982 78.5045 165.973 78.7304 166.008 78.9124C166.04 79.0945 166.094 79.2482 166.164 79.3738C166.234 79.4962 166.316 79.5966 166.412 79.6719C166.507 79.7472 166.6 79.8069 166.692 79.8508C166.931 79.9795 167.195 80.0987 167.488 80.2054C167.78 80.3121 168.073 80.422 168.369 80.5349C168.665 80.6479 168.951 80.7766 169.225 80.9241C169.499 81.0684 169.731 81.2567 169.919 81.489C170.107 81.7212 170.24 81.9974 170.32 82.3206C170.399 82.6439 170.396 83.0424 170.31 83.5163C170.215 84.0561 170.04 84.53 169.785 84.9442C169.531 85.3585 169.216 85.71 168.843 85.9956C168.471 86.2812 168.051 86.4977 167.586 86.6483C167.122 86.799 166.635 86.8743 166.122 86.8743C165.861 86.8743 165.559 86.8523 165.215 86.8084C164.875 86.7644 164.557 86.6954 164.261 86.5981C163.968 86.5008 163.726 86.3784 163.542 86.2278C163.357 86.0772 163.281 85.8951 163.322 85.6786C163.351 85.5186 163.433 85.371 163.573 85.2424C163.71 85.1137 163.863 85.0478 164.025 85.0478C164.133 85.0478 164.261 85.076 164.404 85.1357C164.547 85.1953 164.709 85.2581 164.894 85.3303C165.079 85.3993 165.292 85.4652 165.53 85.5248C165.772 85.5845 166.049 85.6127 166.367 85.6127C167.099 85.6127 167.678 85.4401 168.105 85.0949C168.531 84.7497 168.802 84.2601 168.916 83.6262V83.6356ZM155.357 81.0528C155.452 80.5255 155.392 80.1458 155.175 79.9136C154.959 79.6813 154.612 79.5652 154.132 79.5652C153.597 79.5652 153.158 79.697 152.817 79.9606C152.477 80.2242 152.264 80.582 152.184 81.0339L151.964 82.261C152.264 82.3049 152.579 82.3332 152.916 82.3489C153.25 82.3646 153.501 82.374 153.664 82.374C153.969 82.374 154.224 82.3363 154.431 82.261C154.634 82.1857 154.803 82.0853 154.933 81.9629C155.064 81.8405 155.163 81.6961 155.223 81.5361C155.284 81.376 155.331 81.2128 155.36 81.0528H155.357ZM153.126 85.7351C153.476 85.7351 153.785 85.6912 154.049 85.6064C154.316 85.5217 154.603 85.4118 154.908 85.2832C154.93 85.2738 154.965 85.2612 155.003 85.2518C155.045 85.2424 155.089 85.2361 155.147 85.2361C155.309 85.2361 155.436 85.2926 155.525 85.4056C155.614 85.5186 155.646 85.6504 155.618 85.801C155.583 85.9956 155.459 86.1588 155.242 86.2937C155.026 86.4287 154.774 86.5354 154.482 86.617C154.189 86.6985 153.886 86.7582 153.575 86.7958C153.263 86.8335 152.995 86.8523 152.779 86.8523C152.321 86.8523 151.92 86.7864 151.579 86.6515C151.239 86.5165 150.965 86.3282 150.765 86.0866C150.561 85.8449 150.424 85.5593 150.354 85.2298C150.281 84.9003 150.281 84.5488 150.348 84.1722L150.889 81.1532C150.959 80.764 151.089 80.4063 151.28 80.0705C151.471 79.7378 151.713 79.4491 152.009 79.2074C152.305 78.9658 152.649 78.7744 153.046 78.6331C153.444 78.4919 153.886 78.4229 154.377 78.4229C155.293 78.4229 155.933 78.6582 156.295 79.1321C156.658 79.606 156.766 80.2462 156.623 81.0528C156.49 81.7965 156.171 82.3803 155.662 82.8039C155.156 83.2307 154.408 83.441 153.428 83.441C153.177 83.441 152.91 83.4316 152.623 83.4096C152.337 83.3876 152.057 83.35 151.783 83.2966L151.611 84.2507C151.532 84.7026 151.614 85.0635 151.869 85.3334C152.12 85.6033 152.54 85.7382 153.132 85.7382L153.126 85.7351ZM143.178 81.4388C143.254 81.0182 143.382 80.6291 143.56 80.2682C143.738 79.9073 143.971 79.5966 144.251 79.3298C144.534 79.0662 144.874 78.856 145.272 78.699C145.67 78.5421 146.128 78.4637 146.64 78.4637C146.838 78.4637 147.06 78.4794 147.312 78.5107C147.563 78.5421 147.802 78.5955 148.028 78.6708C148.254 78.7461 148.438 78.8465 148.582 78.9689C148.725 79.0913 148.776 79.2514 148.741 79.4459C148.712 79.5966 148.636 79.7253 148.508 79.8351C148.381 79.9418 148.238 79.9952 148.085 79.9952C148.009 79.9952 147.923 79.9795 147.831 79.9481C147.652 79.8508 147.468 79.7661 147.28 79.6907C147.092 79.6154 146.857 79.5778 146.57 79.5778C145.928 79.5778 145.438 79.7378 145.107 80.0611C144.776 80.3843 144.556 80.8425 144.451 81.4325L144.015 83.8709C143.91 84.4641 143.964 84.9223 144.177 85.2424C144.394 85.5656 144.823 85.7257 145.466 85.7257C145.749 85.7257 146.001 85.688 146.214 85.6127C146.43 85.5374 146.644 85.4526 146.857 85.3554C146.962 85.324 147.051 85.3083 147.127 85.3083C147.28 85.3083 147.401 85.3616 147.49 85.4683C147.579 85.575 147.611 85.7037 147.586 85.8544C147.551 86.0489 147.439 86.2058 147.255 86.3314C147.07 86.4538 146.847 86.5542 146.596 86.6295C146.341 86.7048 146.084 86.7582 145.823 86.7896C145.562 86.8209 145.329 86.8366 145.135 86.8366C144.623 86.8366 144.193 86.7582 143.85 86.6013C143.506 86.4444 143.242 86.2341 143.054 85.9705C142.866 85.7068 142.749 85.393 142.698 85.0321C142.647 84.6712 142.659 84.2821 142.736 83.8615L143.172 81.4231L143.178 81.4388ZM134.506 86.2215C134.475 86.3941 134.398 86.5385 134.274 86.6578C134.15 86.777 133.978 86.8366 133.759 86.8366C133.539 86.8366 133.389 86.777 133.307 86.6578C133.224 86.5385 133.198 86.3941 133.23 86.2215L134.214 80.7295C134.255 80.5036 134.277 80.3309 134.28 80.2117C134.287 80.0924 134.28 79.9952 134.268 79.9198C134.255 79.8445 134.233 79.788 134.201 79.7504C134.169 79.7127 134.144 79.6625 134.121 79.5966C134.105 79.5652 134.09 79.5244 134.07 79.4742C134.051 79.4271 134.051 79.3581 134.067 79.2733C134.096 79.1133 134.179 78.9783 134.312 78.8685C134.446 78.7618 134.602 78.7085 134.774 78.7085C134.926 78.7085 135.051 78.7524 135.143 78.8371C135.235 78.9219 135.315 79.0348 135.378 79.1761C135.782 78.9281 136.199 78.7461 136.623 78.6269C137.049 78.5076 137.456 78.448 137.851 78.448C138.723 78.448 139.328 78.7273 139.659 79.289C139.989 79.8477 140.072 80.5852 139.91 81.5015L139.067 86.2184C139.035 86.391 138.955 86.5354 138.825 86.6546C138.694 86.7739 138.526 86.8335 138.319 86.8335C138.112 86.8335 137.962 86.7739 137.876 86.6546C137.787 86.5354 137.759 86.391 137.791 86.2184L138.634 81.5015C138.745 80.8864 138.701 80.4125 138.503 80.0799C138.306 79.7472 137.962 79.5778 137.472 79.5778C137.157 79.5778 136.833 79.6374 136.508 79.7566C136.18 79.8759 135.856 80.0422 135.534 80.2588C135.534 80.4408 135.522 80.5977 135.499 80.7264L134.516 86.2184L134.506 86.2215ZM129.679 81.0528C129.774 80.5255 129.714 80.1458 129.497 79.9136C129.281 79.6813 128.934 79.5652 128.454 79.5652C127.919 79.5652 127.48 79.697 127.139 79.9606C126.799 80.2242 126.586 80.582 126.506 81.0339L126.287 82.261C126.586 82.3049 126.901 82.3332 127.238 82.3489C127.572 82.3646 127.824 82.374 127.986 82.374C128.291 82.374 128.546 82.3363 128.753 82.261C128.957 82.1857 129.125 82.0853 129.256 81.9629C129.386 81.8405 129.485 81.6961 129.545 81.5361C129.606 81.376 129.653 81.2128 129.682 81.0528H129.679ZM127.448 85.7351C127.798 85.7351 128.107 85.6912 128.371 85.6064C128.638 85.5217 128.925 85.4118 129.23 85.2832C129.252 85.2738 129.287 85.2612 129.326 85.2518C129.367 85.2424 129.412 85.2361 129.469 85.2361C129.631 85.2361 129.758 85.2926 129.848 85.4056C129.937 85.5186 129.968 85.6504 129.94 85.801C129.905 85.9956 129.781 86.1588 129.564 86.2937C129.348 86.4287 129.097 86.5354 128.804 86.617C128.511 86.6985 128.209 86.7582 127.897 86.7958C127.585 86.8335 127.318 86.8523 127.101 86.8523C126.643 86.8523 126.242 86.7864 125.902 86.6515C125.561 86.5165 125.287 86.3282 125.087 86.0866C124.883 85.8449 124.746 85.5593 124.676 85.2298C124.603 84.9003 124.603 84.5488 124.67 84.1722L125.211 81.1532C125.281 80.764 125.411 80.4063 125.602 80.0705C125.793 79.7378 126.035 79.4491 126.331 79.2074C126.627 78.9658 126.971 78.7744 127.369 78.6331C127.766 78.4919 128.209 78.4229 128.699 78.4229C129.615 78.4229 130.255 78.6582 130.618 79.1321C130.98 79.606 131.089 80.2462 130.945 81.0528C130.812 81.7965 130.494 82.3803 129.984 82.8039C129.478 83.2307 128.731 83.441 127.75 83.441C127.499 83.441 127.232 83.4316 126.945 83.4096C126.659 83.3876 126.379 83.35 126.105 83.2966L125.933 84.2507C125.854 84.7026 125.937 85.0635 126.191 85.3334C126.443 85.6033 126.863 85.7382 127.454 85.7382L127.448 85.7351ZM117.185 86.2372C117.153 86.4098 117.064 86.5605 116.915 86.6891C116.765 86.8178 116.6 86.8837 116.412 86.8837C116.224 86.8837 116.081 86.8178 115.979 86.6891C115.877 86.5605 115.842 86.4098 115.871 86.2372L117.688 76.0943C117.72 75.9122 117.825 75.7396 118.003 75.5764C118.178 75.4164 118.375 75.3348 118.595 75.3348H123.034C123.219 75.3348 123.365 75.3976 123.467 75.5199C123.569 75.6423 123.607 75.7961 123.572 75.9813C123.54 76.1633 123.451 76.3139 123.305 76.4269C123.158 76.5399 122.993 76.5964 122.808 76.5964H118.91L118.232 80.3749H121.819C121.981 80.3749 122.118 80.4345 122.229 80.5538C122.341 80.673 122.379 80.8237 122.344 81.0057C122.312 81.1877 122.223 81.3383 122.083 81.4576C121.943 81.5769 121.777 81.6365 121.593 81.6365H118.006L117.182 86.2404L117.185 86.2372Z" fill="#16AD82"/>
<path d="M245.042 40.2956C243.702 40.2956 242.579 39.828 241.672 38.8928C240.765 37.9576 240.332 36.8435 240.374 35.5505C240.415 34.2575 240.921 33.1434 241.889 32.2082C242.856 31.273 244.008 30.8054 245.345 30.8054C246.681 30.8054 247.817 31.2762 248.711 32.2208C249.606 33.1654 250.038 34.2732 249.997 35.5505C249.956 36.8184 249.459 37.9262 248.505 38.874C247.55 39.8217 246.395 40.2956 245.042 40.2956ZM249.103 35.5537C249.138 34.4741 248.788 33.5483 248.053 32.7763C247.318 32.0042 246.414 31.6151 245.338 31.6151C244.263 31.6151 243.308 32.0011 242.512 32.77C241.717 33.5389 241.303 34.4647 241.268 35.5474C241.233 36.6301 241.589 37.559 242.337 38.331C243.085 39.1031 243.995 39.4891 245.064 39.4891C246.134 39.4891 247.066 39.1031 247.859 38.3373C248.651 37.5684 249.065 36.6426 249.1 35.5599L249.103 35.5537ZM244.329 36.1091L244.259 38.3122H242.805L242.98 32.7857H245.494C246.242 32.7857 246.786 32.9395 247.133 33.2439C247.48 33.5483 247.642 33.9531 247.626 34.4553C247.604 35.1143 247.26 35.5882 246.592 35.8769L247.591 38.3122H245.984L245.154 36.1091H244.326H244.329ZM244.403 33.7994L244.361 35.1394H245.119C245.5 35.1394 245.768 35.0798 245.914 34.9605C246.061 34.8413 246.14 34.6687 246.146 34.4458C246.15 34.2983 246.111 34.1665 246.029 34.0504C245.946 33.9374 245.854 33.8653 245.749 33.837C245.644 33.8088 245.44 33.7962 245.135 33.7962H244.403V33.7994Z" fill="white"/>
<path d="M8.64375 71.3114C8.42099 71.3114 8.23642 71.2423 8.12822 71.1137C8.00411 70.9662 8.00729 70.7841 8.02957 70.6555L15.0083 35.0327C15.107 34.5368 15.6734 34.1038 16.2208 34.1038H24.2083C24.4342 34.1038 24.6156 34.1728 24.727 34.3015C24.8511 34.449 24.8479 34.631 24.8225 34.7597L17.8405 70.3824C17.7451 70.8783 17.1786 71.3114 16.6313 71.3114H8.64375Z" fill="white"/>
<path d="M23.8256 71.3113C23.6028 71.3113 23.4183 71.2423 23.3069 71.1136C23.1828 70.9661 23.186 70.7841 23.2114 70.6554L28.5163 43.5782C29.5378 38.353 35.0145 34.1006 40.7203 34.1006H64.6829C64.9089 34.1006 65.0902 34.1696 65.2016 34.2983C65.3257 34.4458 65.3226 34.6278 65.3003 34.7565L64.0656 41.055C63.9701 41.5509 63.4036 41.984 62.8531 41.984H38.5914L36.8316 50.9564H52.5171C52.743 50.9564 52.9244 51.0254 53.0358 51.1541C53.1599 51.3016 53.1567 51.4867 53.1312 51.6123L51.8965 57.914C51.7979 58.4098 51.2346 58.8429 50.6841 58.8429H35.2882L33.0256 70.3761C32.9301 70.872 32.3637 71.3051 31.8163 71.3051H23.8288L23.8256 71.3113Z" fill="white"/>
<path d="M71.3284 71.3113C68.5534 71.3113 66.1699 70.3102 64.6137 68.49C63.1467 66.7734 62.5994 64.5075 63.0672 62.1067L66.6981 43.5782C67.7228 38.353 73.1995 34.1006 78.9054 34.1006H96.7421C99.517 34.1006 101.901 35.1017 103.453 36.9188C104.921 38.6354 105.468 40.9044 105 43.3021L104.243 47.1716C103.218 52.3968 97.7413 56.6492 92.0355 56.6492H73.8965L72.5663 63.4248H97.8463C98.0691 63.4248 98.2536 63.4938 98.365 63.6225C98.4891 63.77 98.486 63.952 98.4605 64.0807L97.2258 70.3824C97.1271 70.8783 96.5607 71.3113 96.0133 71.3113H71.322H71.3284ZM75.4462 48.7596H94.174L95.501 41.984H76.7701L75.4431 48.7596H75.4462Z" fill="white"/>
<path d="M199.774 71.3113C196.999 71.3113 194.615 70.3102 193.059 68.49C191.592 66.7734 191.045 64.5075 191.512 62.1067L195.143 43.5782C196.168 38.353 201.642 34.1006 207.351 34.1006H225.187C227.962 34.1006 230.346 35.1017 231.899 36.9188C233.366 38.6354 233.913 40.9044 233.445 43.3021L232.688 47.1716C231.663 52.3968 226.187 56.6492 220.481 56.6492H202.342L201.012 63.4248H226.292C226.514 63.4248 226.699 63.4938 226.81 63.6225C226.934 63.77 226.931 63.952 226.906 64.0807L225.671 70.3824C225.572 70.8783 225.006 71.3113 224.459 71.3113H199.767H199.774ZM203.892 48.7596H222.619L223.946 41.984H205.215L203.888 48.7596H203.892Z" fill="white"/>
<path d="M133.077 71.3114C132.855 71.3114 132.67 71.2423 132.562 71.1137C132.438 70.9662 132.441 70.7841 132.466 70.6555L138.083 41.9903H119.798L114.235 70.3824C114.14 70.8783 113.573 71.3145 113.023 71.3145H105.035C104.812 71.3145 104.628 71.2455 104.519 71.1168C104.392 70.9693 104.399 70.7873 104.421 70.6586L109.726 43.5814C110.747 38.3561 116.224 34.1038 121.93 34.1038H139.324C142.102 34.1038 144.486 35.1049 146.036 36.9219C147.503 38.6386 148.053 40.9076 147.582 43.3084L142.277 70.3856C142.179 70.8814 141.615 71.3177 141.065 71.3177H133.077V71.3114Z" fill="white"/>
<path d="M111.631 84.1408L111.167 86.5134C111.071 87.0092 110.505 87.4454 109.954 87.4454H101.967C101.744 87.4454 101.559 87.3764 101.451 87.2477C101.324 87.1002 101.33 86.9182 101.352 86.7895L103.415 76.2888H103.424L103.567 75.5576C103.663 75.0617 104.229 74.6255 104.78 74.6255H112.767C112.99 74.6255 113.175 74.6945 113.283 74.8232C113.41 74.9707 113.404 75.1527 113.382 75.2814L111.638 84.1408H111.631Z" fill="#16AD82"/>
<path d="M209.042 29.0197C208.946 29.5156 208.38 29.9518 207.829 29.9518H199.842C199.619 29.9518 199.434 29.8828 199.326 29.7541C199.199 29.6066 199.205 29.4246 199.227 29.2959C199.963 25.5519 200.71 21.7985 201.446 18.0671C201.541 17.5712 202.107 17.135 202.658 17.135H210.646C210.868 17.135 211.053 17.2041 211.161 17.3327C211.288 17.4802 211.282 17.6622 211.26 17.7909C210.521 21.538 209.777 25.2789 209.042 29.0197Z" fill="#16AD82"/>
<path d="M222.391 29.0198C222.296 29.5156 221.729 29.9519 221.179 29.9519H213.191C212.969 29.9519 212.784 29.8828 212.676 29.7542C212.548 29.6067 212.555 29.4246 212.577 29.296C213.312 25.552 215.693 13.6359 216.424 9.90131C216.52 9.40546 217.086 8.96924 217.637 8.96924H225.624C225.847 8.96924 226.032 9.03828 226.14 9.16695C226.267 9.31445 226.261 9.49647 226.239 9.62514C225.5 13.3723 223.126 25.2758 222.391 29.0198Z" fill="#16AD82"/>
<path d="M236.264 29.0198C236.169 29.5157 235.602 29.9519 235.052 29.9519H227.064C226.842 29.9519 226.657 29.8829 226.549 29.7542C226.421 29.6067 226.428 29.4247 226.45 29.296C227.185 25.552 231.195 4.66668 231.93 0.935247C232.026 0.439397 232.592 0.00317383 233.142 0.00317383H241.13C241.353 0.00317383 241.537 0.0722163 241.646 0.200886C241.773 0.348386 241.766 0.530407 241.744 0.659077C241.006 4.4062 236.999 25.279 236.264 29.0198Z" fill="#16AD82"/>
<path d="M10.2914 42.9946L9.82679 45.3671C9.73133 45.863 9.16488 46.2992 8.61434 46.2992H0.626819C0.404059 46.2992 0.219487 46.2301 0.111289 46.1015C-0.0160018 45.954 -0.00963725 45.7719 0.0126387 45.6433L2.07476 35.1425H2.0843L2.22751 34.4113C2.32297 33.9155 2.88942 33.4792 3.43996 33.4792H11.4275C11.6502 33.4792 11.8348 33.5483 11.943 33.677C12.0703 33.8245 12.0639 34.0065 12.0417 34.1352L10.2978 42.9946H10.2914Z" fill="#16AD82"/>
<path d="M157.332 71.3113C154.557 71.3113 152.174 70.3102 150.621 68.4932C149.154 66.7765 148.603 64.5107 149.074 62.1067L152.705 43.5782C153.73 38.353 159.207 34.1006 164.909 34.1006H181.95C184.71 34.1006 187.144 34.8098 188.808 36.1028C190.38 37.3236 191.065 38.9336 190.73 40.6377L189.578 46.5188C189.48 47.0115 188.913 47.4478 188.366 47.4478H180.378C180.152 47.4478 179.971 47.3787 179.863 47.25C179.739 47.1057 179.742 46.9205 179.764 46.7918L180.706 41.9871H162.777L158.577 63.4248H176.506L177.393 58.8931C177.492 58.3973 178.055 57.9642 178.606 57.9642H186.593C186.816 57.9642 187.001 58.0332 187.109 58.1619C187.233 58.3094 187.23 58.4914 187.204 58.6201L186.052 64.5012C185.706 66.2807 184.318 67.9691 182.148 69.2589C179.92 70.5833 177.158 71.3113 174.367 71.3113H157.326H157.332Z" fill="white"/>
<path d="M195.573 29.0198C195.477 29.5156 194.911 29.9519 194.36 29.9519H186.373C186.15 29.9519 185.966 29.8828 185.857 29.7542C185.73 29.6067 185.736 29.4246 185.759 29.296C186.494 25.552 188.874 13.6359 189.606 9.90131C189.702 9.40546 190.268 8.96924 190.819 8.96924H198.806C199.029 8.96924 199.213 9.03828 199.322 9.16695C199.449 9.31445 199.443 9.49647 199.42 9.62514C198.682 13.3723 196.308 25.2758 195.573 29.0198Z" fill="#16AD82"/>
<path d="M181.235 29.0198C181.14 29.5157 180.573 29.9519 180.023 29.9519H172.035C171.812 29.9519 171.628 29.8829 171.519 29.7542C171.392 29.6067 171.399 29.4247 171.421 29.296C172.156 25.552 176.166 4.66668 176.901 0.935247C176.996 0.439397 177.563 0.00317383 178.113 0.00317383H186.101C186.323 0.00317383 186.508 0.0722163 186.616 0.200886C186.744 0.348386 186.737 0.530407 186.715 0.659077C185.977 4.4062 181.97 25.279 181.235 29.0198Z" fill="#16AD82"/>
<path fill-rule="evenodd" clip-rule="evenodd" d="M185.578 15.4436C187.481 15.4436 188.869 16.8998 188.678 18.698C188.487 20.4963 186.788 21.9524 184.885 21.9524C182.982 21.9524 181.594 20.4963 181.785 18.698C181.976 16.9029 183.675 15.4436 185.578 15.4436Z" fill="white"/>
<path fill-rule="evenodd" clip-rule="evenodd" d="M227.055 15.4436C228.958 15.4436 230.345 16.8998 230.155 18.698C229.964 20.4963 228.264 21.9524 226.361 21.9524C224.458 21.9524 223.071 20.4963 223.262 18.698C223.453 16.9029 225.152 15.4436 227.055 15.4436Z" fill="white"/>
<path fill-rule="evenodd" clip-rule="evenodd" d="M212.395 20.6311C214.298 20.6311 215.685 22.0873 215.494 23.8855C215.303 25.6806 213.604 27.1399 211.701 27.1399C209.798 27.1399 208.411 25.6838 208.602 23.8855C208.792 22.0904 210.492 20.6311 212.395 20.6311Z" fill="white"/>
<path fill-rule="evenodd" clip-rule="evenodd" d="M199.045 20.6311C200.948 20.6311 202.336 22.0873 202.145 23.8855C201.954 25.6806 200.254 27.1399 198.351 27.1399C196.448 27.1399 195.061 25.6838 195.252 23.8855C195.443 22.0904 197.142 20.6311 199.045 20.6311Z" fill="white"/>
</g>
<defs>
<clipPath id="clip0_405_16657">
<rect width="250" height="90" fill="white"/>
</clipPath>
</defs>
</svg>
