<?xml version="1.0" standalone="no"?>
<!DOCTYPE svg PUBLIC "-//W3C//DTD SVG 20010904//EN"
 "http://www.w3.org/TR/2001/REC-SVG-20010904/DTD/svg10.dtd">
<svg version="1.0" xmlns="http://www.w3.org/2000/svg"
 width="1200.000000pt" height="1200.000000pt" viewBox="0 0 1200.000000 1200.000000"
 preserveAspectRatio="xMidYMid meet">
<metadata>
Created by potrace 1.14, written by Peter Selinger 2001-2017
</metadata>
<g transform="translate(0.000000,1200.000000) scale(0.100000,-0.100000)"
fill="#000000" stroke="none">
<path d="M3055 11993 c-61 -13 -154 -65 -206 -115 -66 -64 -95 -124 -114 -237
-3 -19 -8 -37 -10 -41 -2 -3 -7 -29 -11 -56 -3 -27 -10 -59 -15 -72 -5 -12 -8
-26 -8 -30 1 -4 0 -9 -1 -12 -3 -9 -10 -44 -15 -73 -2 -16 -6 -40 -10 -55 -8
-40 -14 -68 -30 -152 -8 -41 -17 -86 -20 -100 -3 -14 -8 -38 -10 -55 -3 -16
-7 -41 -11 -55 -3 -14 -7 -34 -9 -45 -4 -19 -10 -52 -20 -100 -19 -98 -36
-183 -40 -204 -7 -40 -14 -73 -21 -106 -4 -16 -8 -39 -10 -50 -2 -11 -5 -31
-8 -45 -13 -59 -17 -77 -22 -110 -3 -19 -7 -42 -9 -50 -2 -8 -7 -28 -10 -45
-2 -16 -7 -41 -10 -55 -7 -33 -24 -119 -30 -150 -2 -14 -14 -68 -25 -120 -11
-52 -22 -111 -25 -130 -3 -19 -6 -42 -8 -50 -5 -21 -17 -81 -22 -105 -2 -11
-4 -20 -5 -20 -1 0 -3 -9 -4 -20 -1 -11 -6 -38 -10 -60 -5 -22 -10 -51 -12
-65 -3 -14 -7 -32 -9 -40 -3 -8 -7 -33 -11 -55 -3 -22 -8 -43 -9 -46 -2 -3 -7
-28 -11 -55 -3 -27 -8 -52 -10 -55 -2 -3 -6 -21 -9 -40 -3 -19 -8 -45 -10 -59
-3 -14 -7 -35 -10 -48 -2 -13 -20 -103 -40 -201 -20 -98 -37 -191 -39 -207 -3
-16 -7 -36 -10 -44 -3 -8 -7 -31 -10 -51 -3 -20 -8 -42 -10 -50 -3 -8 -7 -30
-10 -49 -6 -36 -8 -48 -27 -140 -31 -149 -33 -186 -15 -233 12 -31 28 -50 63
-72 l48 -30 1329 -1 c1259 0 1332 1 1384 18 156 51 272 178 287 313 3 27 14
81 30 155 3 14 8 40 11 59 3 18 8 43 10 55 3 11 7 30 9 41 4 21 9 47 26 135 7
30 13 62 14 70 2 8 4 15 5 15 1 0 3 16 6 35 2 19 13 76 24 125 16 76 30 144
54 270 2 11 20 101 40 200 19 99 38 194 40 210 3 17 8 39 10 50 20 95 37 177
42 210 3 22 7 42 9 45 2 3 6 24 9 46 7 45 10 61 25 124 5 25 13 61 16 80 3 19
26 139 52 265 25 127 47 239 49 250 2 11 8 45 14 75 6 30 12 65 15 78 3 12 7
32 10 45 10 47 26 133 31 166 2 19 7 37 9 41 3 4 7 25 11 46 3 22 9 57 14 79
10 46 21 103 25 125 1 8 5 31 9 50 4 19 8 42 10 50 2 8 6 26 9 40 6 23 10 48
22 123 2 15 7 32 10 37 3 5 8 28 10 52 2 24 8 59 12 78 10 42 9 67 -1 99 -10
29 -66 92 -76 86 -4 -2 -16 2 -26 10 -16 12 -211 14 -1349 13 -731 0 -1339 -2
-1350 -5z"/>
<path d="M7160 11799 c-112 -13 -201 -57 -278 -139 -29 -31 -74 -109 -78 -135
-1 -5 -9 -46 -18 -90 -9 -44 -18 -89 -20 -100 -9 -51 -18 -102 -23 -125 -3
-14 -7 -34 -8 -45 -2 -11 -4 -20 -5 -20 -1 0 -4 -11 -6 -25 -2 -14 -15 -81
-29 -150 -24 -119 -30 -149 -39 -195 -5 -30 -35 -186 -41 -215 -3 -14 -7 -36
-10 -50 -6 -31 -12 -61 -25 -125 -5 -27 -12 -61 -14 -75 -3 -14 -5 -25 -6 -25
-1 0 -3 -9 -4 -20 -3 -18 -17 -95 -31 -165 -14 -71 -19 -97 -21 -115 -1 -11
-3 -20 -4 -20 -1 0 -3 -8 -5 -18 -2 -10 -11 -55 -20 -100 -10 -45 -19 -93 -21
-107 -2 -14 -17 -95 -34 -180 -17 -85 -33 -164 -34 -175 -2 -11 -6 -31 -10
-45 -3 -14 -8 -36 -10 -50 -3 -14 -7 -35 -10 -46 -2 -12 -7 -39 -10 -60 -4
-22 -9 -47 -12 -57 -3 -11 -7 -29 -9 -40 -2 -12 -6 -35 -10 -52 -17 -88 -35
-184 -39 -210 -2 -16 -5 -32 -7 -35 -1 -3 -3 -9 -4 -15 0 -5 -4 -26 -8 -45 -4
-19 -9 -46 -12 -60 -3 -14 -9 -47 -15 -75 -5 -27 -12 -65 -15 -84 -3 -19 -8
-37 -10 -41 -3 -4 -6 -23 -9 -43 -2 -20 -7 -44 -10 -54 -4 -16 -13 -62 -21
-118 -2 -11 -4 -20 -5 -20 -1 0 -3 -7 -5 -15 -8 -41 -27 -137 -29 -155 -4 -22
-16 -90 -23 -120 -2 -11 -7 -33 -10 -50 -7 -40 -11 -59 -13 -65 -1 -3 -2 -8
-2 -11 0 -3 -3 -23 -9 -45 -5 -21 -12 -55 -15 -74 -4 -19 -7 -39 -9 -45 -8
-36 -17 -84 -20 -110 -2 -16 -4 -30 -5 -30 -2 0 -7 -22 -14 -65 -4 -19 -9 -46
-11 -60 -3 -14 -7 -34 -9 -45 -4 -19 -58 -289 -77 -385 -9 -43 -11 -54 -24
-128 -3 -18 -12 -65 -21 -105 -8 -39 -17 -83 -19 -97 -2 -14 -16 -83 -30 -155
-15 -71 -28 -141 -30 -155 -2 -14 -4 -25 -5 -25 -2 0 -7 -25 -15 -75 -4 -24
-9 -48 -11 -51 -2 -4 -6 -27 -9 -50 -3 -24 -10 -60 -15 -79 -5 -19 -12 -50
-15 -67 -13 -82 -17 -101 -26 -143 -6 -25 -13 -58 -16 -75 -5 -32 -17 -93 -27
-135 -3 -13 -8 -40 -11 -60 -6 -43 -12 -75 -21 -115 -4 -16 -8 -37 -9 -45 0
-9 -4 -21 -9 -28 -4 -6 -5 -12 -3 -12 3 0 1 -17 -4 -37 -5 -21 -11 -54 -14
-73 -3 -19 -10 -55 -16 -80 -13 -61 -18 -89 -25 -130 -3 -19 -7 -43 -10 -52
-3 -10 -7 -29 -10 -43 -2 -14 -6 -36 -8 -50 -3 -14 -7 -33 -10 -43 -3 -9 -8
-33 -10 -52 -3 -19 -7 -46 -10 -60 -17 -79 -28 -133 -31 -157 -2 -16 -4 -28
-5 -28 -1 0 -3 -11 -6 -25 -2 -14 -9 -50 -16 -80 -6 -30 -12 -59 -13 -65 -1
-5 -3 -12 -4 -15 -2 -3 -4 -14 -5 -25 -3 -21 -12 -73 -22 -115 -3 -14 -7 -36
-9 -50 -2 -14 -9 -50 -15 -80 -6 -30 -13 -66 -16 -80 -2 -14 -9 -45 -14 -70
-11 -53 -19 -95 -25 -133 -2 -15 -6 -31 -9 -35 -3 -5 -8 -30 -11 -58 -10 -70
-13 -89 -15 -89 -1 0 -3 -9 -5 -20 -2 -11 -18 -87 -34 -170 -16 -82 -27 -153
-25 -157 3 -4 1 -8 -3 -8 -5 0 -10 -10 -11 -23 -1 -12 -9 -56 -17 -97 -9 -41
-18 -88 -21 -105 -3 -16 -7 -39 -9 -50 -4 -24 -33 -170 -40 -205 -3 -14 -7
-36 -10 -50 -7 -35 -12 -64 -31 -155 -9 -44 -18 -89 -19 -100 -3 -17 -11 -61
-30 -155 -3 -14 -8 -38 -11 -55 -3 -16 -7 -34 -8 -40 -2 -5 -7 -32 -11 -60 -5
-27 -10 -52 -10 -55 -2 -6 -16 -76 -20 -100 -2 -8 -8 -35 -14 -60 -5 -25 -13
-61 -16 -80 -7 -43 -32 -176 -40 -210 -3 -14 -8 -41 -11 -60 -3 -19 -7 -37 -9
-40 -2 -3 -6 -26 -10 -50 -3 -25 -10 -63 -15 -85 -5 -22 -11 -53 -14 -70 -3
-16 -8 -41 -11 -55 -16 -80 -35 -179 -40 -202 -3 -16 -7 -38 -10 -50 -5 -29
-13 -65 -20 -100 -6 -34 -12 -65 -20 -100 -3 -16 -7 -41 -9 -57 -2 -15 -5 -32
-8 -37 -3 -5 -9 -29 -12 -54 -3 -25 -8 -54 -10 -65 -10 -46 -77 -383 -83 -415
-22 -119 3 -181 88 -220 43 -19 68 -19 1364 -20 1445 0 1359 -3 1468 59 79 45
162 137 172 190 2 9 4 16 5 16 2 0 9 30 15 60 2 11 6 31 10 45 3 14 7 40 10
59 2 18 7 41 9 50 7 21 16 69 21 106 2 17 7 41 10 55 13 54 36 166 40 195 3
17 9 53 15 80 11 54 18 86 25 125 3 14 7 36 10 50 13 68 27 138 31 165 3 17 9
46 14 65 5 19 12 58 16 85 3 28 9 54 12 60 3 5 7 21 8 35 2 14 7 45 13 70 5
25 12 59 15 75 2 17 7 41 11 55 3 14 8 40 11 59 3 18 8 43 10 55 11 47 14 64
18 92 2 16 6 36 9 44 3 8 8 31 11 50 3 19 8 46 11 60 3 14 9 50 15 80 9 51 13
69 24 118 3 15 29 149 40 212 2 14 5 25 6 25 1 0 3 11 6 25 2 14 11 59 19 100
9 41 17 89 20 105 2 17 14 75 25 130 11 55 22 110 24 123 3 12 7 30 10 40 3 9
7 33 10 52 3 19 7 44 10 55 2 11 7 40 11 65 4 25 10 49 13 54 3 5 6 21 8 35 1
14 5 42 9 61 4 19 9 44 11 55 1 11 5 31 8 45 14 62 17 77 21 100 3 14 7 36 10
50 2 14 7 41 10 60 4 19 11 53 16 75 6 22 12 57 14 78 3 21 7 43 11 48 3 5 8
26 10 46 3 20 9 55 14 80 6 24 13 60 16 79 3 20 8 45 10 55 11 50 14 67 21 99
3 19 8 44 9 55 1 11 3 20 4 20 2 0 8 31 15 70 2 17 7 41 10 55 3 14 8 41 11
60 3 19 10 49 14 65 5 17 12 53 16 80 3 28 8 53 10 56 2 4 6 24 9 45 4 22 8
47 11 56 3 10 7 30 10 45 2 16 7 42 11 58 3 17 7 37 8 45 1 8 10 53 20 100 9
47 19 94 20 105 12 64 26 134 39 194 2 10 7 36 10 57 4 22 9 47 12 57 3 11 7
29 9 40 1 12 12 72 25 132 13 61 24 121 25 135 2 14 4 27 6 30 1 3 3 10 4 15
0 6 4 26 8 45 4 19 9 46 12 60 3 14 15 72 26 130 12 58 23 112 24 120 1 8 7
40 13 70 6 30 14 67 17 83 3 15 7 39 10 55 3 15 11 52 17 82 6 30 12 62 13 70
1 8 9 51 18 95 16 76 20 96 32 163 3 15 8 41 12 57 10 44 10 45 22 110 16 85
19 103 32 165 7 30 13 64 15 75 1 11 11 65 23 120 11 55 23 116 26 135 3 19
10 52 16 72 5 20 9 40 8 45 -1 4 1 19 4 33 4 14 9 36 11 50 3 14 14 72 26 130
12 58 23 116 26 130 10 52 24 126 30 155 3 17 7 39 9 50 2 11 4 20 5 20 2 0 9
32 14 65 4 28 23 132 31 170 3 14 10 48 15 75 6 28 12 61 15 75 3 14 8 39 10
55 5 26 27 137 41 200 2 11 6 34 9 50 3 17 8 44 12 60 3 17 8 37 9 45 7 42 17
92 31 155 8 39 16 79 18 90 4 31 14 81 36 190 11 55 22 111 24 125 2 14 6 36
9 50 3 14 8 36 11 50 11 52 16 76 20 100 4 24 8 46 20 105 3 14 7 36 10 50 3
14 7 35 9 48 2 12 16 82 31 155 14 74 28 146 30 160 2 15 4 27 5 27 1 0 3 10
6 23 2 12 18 91 35 175 16 83 32 166 35 182 5 27 65 334 79 403 3 15 7 36 9
47 7 38 17 90 27 133 5 23 12 59 15 80 3 20 7 44 9 52 2 8 7 29 9 45 3 17 16
83 30 148 21 108 24 148 14 199 -7 31 -47 77 -73 84 -14 3 -25 9 -25 13 0 4
-25 7 -55 7 -30 -1 -55 1 -55 4 0 7 -2475 6 -2540 -1z"/>
</g>
</svg>
