<svg width="46" height="46" viewBox="0 0 46 46" fill="none" xmlns="http://www.w3.org/2000/svg">
<path d="M4.9594 31.0858L3.22025 31.6476L1.74011 27.1234L0.333984 27.5817L1.81412 32.0986C1.93253 32.4756 2.19895 32.7861 2.54678 32.9635C2.89462 33.1409 3.29425 33.1779 3.67909 33.0522L5.41824 32.4904C6.23232 33.9763 7.23141 35.3587 8.40811 36.608L7.33502 38.0865C7.0982 38.4044 7.00199 38.7962 7.06119 39.1806C7.1204 39.5725 7.33502 39.9199 7.65325 40.1565L11.2426 42.7587C11.5682 42.9952 11.9604 43.0913 12.3527 43.0248C12.7449 42.9656 13.0853 42.7513 13.3148 42.4334L14.3953 40.9623C15.9346 41.7015 17.5627 42.2264 19.2353 42.5369V44.3628C19.2353 45.176 19.9014 45.8414 20.7154 45.8414H25.1558C25.9699 45.8414 26.636 45.176 26.636 44.3628V42.5369C28.3085 42.2264 29.9367 41.6941 31.4834 40.9549L32.5491 42.426C32.7785 42.7513 33.1189 42.9583 33.5112 43.0248C33.9108 43.0913 34.3031 42.9952 34.6213 42.7587L38.2106 40.1565C38.5362 39.9199 38.7435 39.5725 38.8027 39.1806C38.8619 38.7888 38.7657 38.4044 38.5362 38.0865L37.4705 36.6006C38.6398 35.3661 39.6463 33.9837 40.453 32.483L42.1922 33.0522C42.5696 33.1705 42.9692 33.1409 43.3245 32.9635C43.6797 32.7787 43.9387 32.4756 44.0571 32.0986L45.5373 27.5743L44.1311 27.116L42.651 31.6476L40.9118 31.0784C40.2458 30.8566 39.5131 31.1523 39.1505 31.7807C38.403 33.1557 37.4705 34.4346 36.39 35.5805C35.8942 36.1053 35.8424 36.9037 36.2642 37.4656L37.3373 38.9441L33.748 41.5463L32.6675 40.0604C32.2457 39.4911 31.4908 39.2989 30.8321 39.602C29.4038 40.2821 27.9015 40.7701 26.3695 41.0584C25.6665 41.1914 25.1484 41.7976 25.1484 42.5073V44.3333H20.708V42.5073C20.708 41.7976 20.1974 41.184 19.4869 41.0584C17.9476 40.7701 16.4452 40.2821 15.0095 39.5946C14.3583 39.2989 13.6034 39.4837 13.1815 40.0604L12.1084 41.5389L8.51912 38.9367L9.58482 37.4656C10.0141 36.8963 9.96225 36.0979 9.45901 35.5731C8.37851 34.4272 7.44603 33.1483 6.69116 31.7585C6.33593 31.1449 5.60326 30.8492 4.9372 31.071L4.9594 31.0858Z" fill="#16AD82"/>
<path d="M22.9438 38.44C29.7746 38.44 35.7322 34.071 37.7673 27.5729L36.3538 27.1294C34.5111 33.0065 29.1234 36.9615 22.9364 36.9615C16.7495 36.9615 11.3618 33.0139 9.519 27.1294L8.10547 27.5729C10.1407 34.071 16.0982 38.44 22.929 38.44H22.9438Z" fill="#16AD82"/>
<path d="M0 24.3926H45.8841V25.8711H0V24.3926Z" fill="#16AD82"/>
<path d="M42.9236 22.917V12.5674C42.9236 12.1608 42.5905 11.8281 42.1835 11.8281H36.263V0.739257C36.263 0.332666 35.9299 0 35.5229 0H26.6421C26.2351 0 25.902 0.332666 25.902 0.739257V8.13183H19.9815V5.1748C19.9815 4.95302 19.8853 4.74603 19.7151 4.60557L15.2747 0.909286C15.0008 0.680117 14.6012 0.680117 14.3274 0.909286L9.88699 4.60557C9.71677 4.74603 9.62056 4.95302 9.62056 5.1748V11.0889H3.70003C3.29299 11.0889 2.95996 11.4215 2.95996 11.8281V22.917H4.44009V12.5674H9.62056V22.917H11.1007V5.52225L14.801 2.43955L18.5014 5.52225V22.917H19.9815V9.61034H25.902V22.917H27.3822V1.47851H34.7828V22.917H36.263V13.3066H41.4434V22.917H42.9236Z" fill="#16AD82"/>
<path d="M28.8604 3.69312H30.3405V5.17163H28.8604V3.69312Z" fill="#16AD82"/>
<path d="M31.8252 3.69312H33.3053V5.17163H31.8252V3.69312Z" fill="#16AD82"/>
<path d="M28.8633 7.39453H30.3434V8.87305H28.8633V7.39453Z" fill="#16AD82"/>
<path d="M31.8252 7.39453H33.3053V8.87305H31.8252V7.39453Z" fill="#16AD82"/>
<path d="M28.8633 11.0908H30.3434V12.5693H28.8633V11.0908Z" fill="#16AD82"/>
<path d="M31.8252 11.0908H33.3053V12.5693H31.8252V11.0908Z" fill="#16AD82"/>
<path d="M12.582 6.65234H17.0224V8.13086H12.582V6.65234Z" fill="#16AD82"/>
<path d="M12.582 10.3508H17.0224V11.8293H12.582V10.3508Z" fill="#16AD82"/>
</svg>
