<svg width="37" height="44" viewBox="0 0 37 44" fill="none" xmlns="http://www.w3.org/2000/svg">
<path d="M0.458321 14.5529L12.1965 11.2029V5.34861H4.74891V6.69644H5.85909C6.20819 6.69644 6.49116 6.97902 6.49116 7.32783V9.9386C6.49116 10.2874 6.20819 10.57 5.85909 10.57H2.37433C2.02522 10.57 1.74225 10.2874 1.74225 9.9386V7.32791C1.74225 6.97911 2.02522 6.69653 2.37433 6.69653H3.48476V5.34861H0.631908C0.316711 5.34861 0.0496445 5.11663 0.00588989 4.80481C-0.0378647 4.49298 0.155159 4.1967 0.458241 4.11013L12.6401 0.633642C12.6408 0.633389 12.6415 0.633221 12.6422 0.633053L12.655 0.629439C12.66 0.62801 12.6649 0.627254 12.6698 0.625993C12.6834 0.622463 12.697 0.619101 12.7109 0.616495C12.721 0.614562 12.731 0.613301 12.7411 0.611873C12.7511 0.610444 12.761 0.608931 12.7712 0.608006C12.7852 0.606746 12.7991 0.606241 12.8131 0.605905C12.8183 0.605653 12.8234 0.60498 12.8286 0.60498H12.8421C12.8427 0.60498 12.8434 0.60498 12.844 0.60498H23.2669C23.268 0.60498 23.2692 0.60498 23.2702 0.60498H23.2826C23.2874 0.60498 23.2921 0.605569 23.2969 0.605737C23.3114 0.606073 23.3259 0.606577 23.3403 0.607922C23.35 0.608763 23.3595 0.610276 23.3692 0.61162C23.3796 0.613133 23.3901 0.614394 23.4007 0.616411C23.4143 0.619017 23.4277 0.622295 23.4409 0.625741C23.446 0.627086 23.4512 0.627842 23.4563 0.629271L23.4694 0.633053C23.4699 0.633221 23.4704 0.633305 23.4709 0.633474L35.6529 4.11013C35.956 4.1967 36.1489 4.49298 36.1052 4.80481C36.0614 5.11663 35.7943 5.34861 35.4791 5.34861H32.6265V6.69644H33.7369C34.086 6.69644 34.369 6.97902 34.369 7.32783V9.9386C34.369 10.2874 34.086 10.57 33.7369 10.57H30.2521C29.903 10.57 29.6201 10.2874 29.6201 9.9386V7.32791C29.6201 6.97911 29.903 6.69653 30.2521 6.69653H31.3625V5.34861H23.9147V11.2028L35.6529 14.5529C35.956 14.6395 36.1489 14.9357 36.1052 15.2476C36.0614 15.5594 35.7943 15.7914 35.4791 15.7914H32.6265V17.1392H33.7369C34.086 17.1392 34.369 17.4218 34.369 17.7706V20.3814C34.369 20.7302 34.086 21.0127 33.7369 21.0127H30.2521C29.903 21.0127 29.6201 20.7302 29.6201 20.3814V17.7706C29.6201 17.4218 29.903 17.1392 30.2521 17.1392H31.3625V15.7914H23.9147V22.0334L26.4998 31.071C26.4999 31.0713 26.5 31.0717 26.5001 31.0721L26.5052 31.0896C26.5053 31.0899 26.5054 31.0902 26.5054 31.0905L26.5066 31.0946C26.5068 31.0953 26.507 31.0961 26.5073 31.0968L28.9867 39.7649H30.2523C30.6014 39.7649 30.8844 40.0474 30.8844 40.3963V42.3757H32.176C32.5251 42.3757 32.808 42.6583 32.808 43.0071C32.808 43.3559 32.5251 43.6385 32.176 43.6385H30.2521H5.85892H3.93525C3.58615 43.6385 3.30317 43.3559 3.30317 43.0071C3.30317 42.6583 3.58615 42.3757 3.93525 42.3757H5.22684V40.3963C5.22684 40.0474 5.50981 39.7649 5.85892 39.7649H7.12459L9.60384 31.0973C9.60418 31.0961 9.6046 31.0947 9.60493 31.0935L9.61066 31.0734C9.61099 31.0724 9.61125 31.0714 9.6115 31.0704L12.1964 22.0333V15.7913H4.74883V17.1391H5.859C6.20811 17.1391 6.49108 17.4217 6.49108 17.7705V20.3813C6.49108 20.7301 6.20811 21.0127 5.859 21.0127H2.37424C2.02514 21.0127 1.74216 20.7301 1.74216 20.3813V17.7706C1.74216 17.4218 2.02514 17.1392 2.37424 17.1392H3.48467V15.7914H0.631824C0.316628 15.7914 0.0495567 15.5594 0.00580597 15.2476C-0.0376968 14.9357 0.155323 14.6395 0.458321 14.5529ZM3.0064 7.9593V9.3073H5.22701V7.9593H3.0064ZM12.1965 2.07351L5.14505 4.08593H12.1965V2.07351ZM30.8842 7.9593V9.3073H33.1048V7.9593H30.8842ZM30.8842 18.4019V19.7499H33.1048V18.4019H30.8842ZM22.6505 1.86775H13.4607V4.08593H22.6505V1.86775ZM13.4607 5.34861V10.4993L21.1952 5.34861H13.4607ZM22.6505 5.89704L14.9162 11.0476H22.6505V5.89704ZM22.6505 12.3104H13.4607V14.5287H22.6505V12.3104ZM23.891 30.6277L18.0555 26.5474L12.2201 30.6277H23.891ZM12.8924 31.8904L18.0556 34.4693L23.2188 31.8904H12.8924ZM21.2774 22.7532H14.8338L18.0556 25.0059L21.2774 22.7532ZM13.4607 15.7914V20.942L21.1951 15.7914H13.4607ZM22.6505 16.3397L14.9159 21.4905H22.6505V16.3397ZM30.9662 4.08584L23.9147 2.07342V4.08584H30.9662ZM30.9662 14.5286L23.9147 12.516V14.5286H30.9662ZM22.9185 23.1471L19.1578 25.7767L24.7989 29.721L22.9185 23.1471ZM25.4977 32.1639L19.4689 35.1751L27.5073 39.1899L25.4977 32.1639ZM7.60184 41.0281H7.60167C7.60092 41.0281 7.60007 41.0279 7.59932 41.0279H6.49091V42.376H6.491H29.62V41.0279H28.5116C28.5108 41.0279 28.51 41.0281 28.5093 41.0281C28.5084 41.0281 28.5074 41.0279 28.5064 41.0279H28.4973C28.4962 41.0279 28.4951 41.0279 28.494 41.0279H22.5408C22.1917 41.0279 21.9087 40.7453 21.9087 40.3965C21.9087 40.0477 22.1917 39.7651 22.5408 39.7651H25.8324L18.0556 35.881L10.2788 39.7651H19.7228C20.0719 39.7651 20.3549 40.0477 20.3549 40.3965C20.3549 40.7453 20.0719 41.0279 19.7228 41.0279H7.6047C7.60378 41.0279 7.60277 41.0281 7.60184 41.0281ZM8.60389 39.1899L16.6423 35.1751L10.6136 32.1639L8.60389 39.1899ZM11.3123 29.7211L16.9534 25.7767L13.1927 23.1471L11.3123 29.7211ZM12.1965 14.5286V12.5161L5.14497 14.5286H12.1965ZM3.0064 18.4019V19.7499H5.22701V18.4019H3.0064Z" fill="#16AD82"/>
</svg>
