<svg width="42" height="43" viewBox="0 0 42 43" fill="none" xmlns="http://www.w3.org/2000/svg">
<path d="M41.6667 5.46172V1.29961C41.6667 1.29075 41.6619 1.28336 41.6616 1.27458C41.6603 1.19215 41.644 1.11069 41.6138 1.03404L41.6127 1.03225C41.6101 1.02591 41.6051 1.02127 41.6024 1.0151C41.5714 0.947461 41.5295 0.885355 41.4784 0.831215C41.4615 0.814388 41.4438 0.798455 41.4254 0.783497C41.3816 0.745046 41.333 0.712286 41.2808 0.686191C41.2594 0.674567 41.2373 0.66408 41.2147 0.654894C41.1375 0.624004 41.0553 0.60742 40.9722 0.605957H18.75C18.5658 0.606038 18.3892 0.679119 18.259 0.809185L0.203695 18.8448L0.202637 18.8461C0.14681 18.9038 0.101562 18.9709 0.068929 19.0442C0.037028 19.1237 0.0167643 19.2073 0.0086263 19.2926C0.00764974 19.3076 0 19.3202 0 19.3354V23.4976C0 23.8807 0.310872 24.1912 0.694417 24.1912H5.90275C7.62785 24.1931 9.02588 25.5896 9.02775 27.3128V28.0661L0.203695 36.8806C0.0742188 37.0113 0.00113932 37.1874 0 37.3713V41.5334C0 41.9165 0.310872 42.227 0.694417 42.227H22.9167C23.0103 42.227 23.1029 42.208 23.189 42.1711C23.1984 42.1671 23.2051 42.1585 23.2143 42.1541C23.288 42.1201 23.3552 42.0735 23.4128 42.0163L23.4195 42.0116L37.2966 27.4564L41.4632 23.2943C41.5934 23.1643 41.6667 22.9879 41.6667 22.8039V18.6418C41.6667 18.6329 41.6619 18.6255 41.6616 18.6168C41.6603 18.5343 41.644 18.4529 41.6138 18.3762L41.6127 18.3744C41.6101 18.3681 41.6051 18.3634 41.6024 18.3573C41.5342 18.2154 41.4212 18.0999 41.2809 18.0284C41.2594 18.0167 41.2374 18.0063 41.2148 17.997C41.1375 17.9661 41.0554 17.9495 40.9723 17.948H35.7639C35.7048 17.952 35.6464 17.9637 35.5903 17.9831C35.5343 17.9638 35.4759 17.952 35.4167 17.948C33.7968 17.9431 32.4504 16.7001 32.3181 15.0873L41.4628 5.95264C41.5924 5.82201 41.6656 5.64577 41.6667 5.46172ZM19.0375 1.99335H39.2957L22.6291 18.6418H2.37085L19.0375 1.99335ZM9.02775 30.0279V33.556C9.02588 35.2792 7.62785 36.6757 5.90275 36.6775H2.37085L9.02775 30.0279ZM22.2222 40.8396H1.38892V38.0649H5.90283C8.39461 38.0621 10.4138 36.045 10.4167 33.556V27.3128C10.4139 24.8237 8.39461 22.8067 5.90283 22.8038H1.38892V20.0291H22.2222V22.8038H17.7083C15.2166 22.8067 13.1973 24.8237 13.1944 27.3128V33.556C13.1973 36.045 15.2166 38.062 17.7083 38.0649H22.2222V40.8396ZM40.2778 22.5166L36.3023 26.4877L23.6111 39.799V37.6486L37.2966 23.2943L40.2778 20.3164L40.2778 22.5166ZM35.4167 19.3354C35.4758 19.3315 35.5342 19.3198 35.5903 19.3004C35.6463 19.3197 35.7047 19.3315 35.7638 19.3354H39.2957L36.3023 22.3256L22.6189 36.6775H17.7083C15.9832 36.6757 14.5852 35.2792 14.5833 33.556V27.3128C14.5852 25.5896 15.9832 24.1931 17.7083 24.1912H22.9167C23.1008 24.1906 23.2773 24.1176 23.4079 23.9877L31.1416 16.2625C31.76 18.0962 33.4796 19.3323 35.4167 19.3354ZM40.2778 5.17452L31.1064 14.3358L31.106 14.3362L23.6111 21.823V19.6226L40.2778 2.97421V5.17452Z" fill="#16AD82"/>
<path d="M17.6278 33.2215C17.3672 33.1135 17.0671 33.1735 16.8684 33.3737C16.7415 33.5067 16.6697 33.6825 16.667 33.8662C16.667 34.2493 16.9779 34.5599 17.3614 34.5599C17.745 34.5599 18.0558 34.2493 18.0558 33.8662C18.0575 33.5843 17.8883 33.3295 17.6278 33.2215Z" fill="#16AD82"/>
<path d="M20.3018 30.2887C20.0607 30.2301 19.8066 30.3046 19.6353 30.4839L18.9409 31.2108C18.6772 31.4882 18.688 31.9264 18.9651 32.1905C19.2422 32.4545 19.6809 32.4448 19.9459 32.1687L20.6403 31.4418C20.8116 31.2625 20.8741 31.0054 20.8043 30.7676C20.7345 30.5298 20.5429 30.3472 20.3018 30.2887Z" fill="#16AD82"/>
<path d="M22.4138 27.5764L21.7194 28.3033C21.4546 28.5805 21.4649 29.0197 21.7424 29.2843C22.0199 29.5488 22.4596 29.5385 22.7244 29.2613L23.4189 28.5343C23.6837 28.2571 23.6733 27.8179 23.3958 27.5534C23.1182 27.2889 22.6786 27.2992 22.4138 27.5764Z" fill="#16AD82"/>
<path d="M25.1922 24.6716L24.4978 25.3985C24.3059 25.5994 24.2523 25.8952 24.3617 26.1505C24.4711 26.4057 24.7223 26.5713 25.0003 26.5712C25.1902 26.5714 25.3719 26.4938 25.5028 26.3564L26.1972 25.6295C26.462 25.3523 26.4517 24.9131 26.1742 24.6486C25.8967 24.3841 25.457 24.3944 25.1922 24.6716Z" fill="#16AD82"/>
<path d="M28.6367 21.5661C28.3951 21.5077 28.1407 21.5827 27.9695 21.7628L27.2751 22.4897C27.0832 22.6906 27.0297 22.9864 27.139 23.2416C27.2484 23.4969 27.4996 23.6624 27.7776 23.6623C27.9675 23.6626 28.1492 23.5849 28.2802 23.4475L28.9746 22.7206C29.1466 22.5414 29.2096 22.284 29.1399 22.0458C29.0701 21.8075 28.8783 21.6246 28.6367 21.5661Z" fill="#16AD82"/>
<path d="M30.2896 19.4183C30.029 19.5263 29.8598 19.7812 29.8614 20.063C29.8582 20.2459 29.9311 20.4218 30.0628 20.5487C30.1927 20.6812 30.3703 20.756 30.5559 20.7567C30.7415 20.756 30.9191 20.6811 31.049 20.5487C31.1806 20.4217 31.2535 20.2458 31.2504 20.063C31.249 19.8792 31.1769 19.7028 31.049 19.5705C30.8503 19.3704 30.5502 19.3102 30.2896 19.4183Z" fill="#16AD82"/>
</svg>
