<svg width="56" height="35" viewBox="0 0 56 35" fill="none" xmlns="http://www.w3.org/2000/svg">
<path d="M1.39746 18.3309C5.12711 20.7324 10.6623 17.7944 15.3287 17.7944C20.8335 17.7944 26.0088 20.5823 30.5295 20.5823C35.0502 20.5823 39.596 17.7483 45.2697 17.7483C49.1108 17.7483 51.8491 18.6705 54.224 19.9755" stroke="#16AD82" stroke-width="2" stroke-miterlimit="10" stroke-linecap="round" stroke-linejoin="round"/>
<path d="M1.39746 11.4998H54.2241" stroke="#16AD82" stroke-width="2" stroke-miterlimit="10" stroke-linecap="round" stroke-linejoin="round"/>
<path d="M26.4374 6.97211C26.3928 5.28457 25.2324 3.77253 23.8936 3.31885" stroke="#16AD82" stroke-width="2" stroke-miterlimit="10" stroke-linecap="round" stroke-linejoin="round"/>
<path d="M29.1777 6.97211C29.2224 5.28457 30.3828 3.77253 31.7216 3.31885" stroke="#16AD82" stroke-width="2" stroke-miterlimit="10" stroke-linecap="round" stroke-linejoin="round"/>
<path d="M27.8076 6.97068V1.60376" stroke="#16AD82" stroke-width="2" stroke-miterlimit="10" stroke-linecap="round" stroke-linejoin="round"/>
<path d="M42.3202 6.97211C42.2756 5.28457 41.1152 3.77253 39.7764 3.31885" stroke="#16AD82" stroke-width="2" stroke-miterlimit="10" stroke-linecap="round" stroke-linejoin="round"/>
<path d="M45.0605 6.97211C45.1052 5.28457 46.2656 3.77253 47.6044 3.31885" stroke="#16AD82" stroke-width="2" stroke-miterlimit="10" stroke-linecap="round" stroke-linejoin="round"/>
<path d="M43.6914 6.97068V1.60376" stroke="#16AD82" stroke-width="2" stroke-miterlimit="10" stroke-linecap="round" stroke-linejoin="round"/>
<path d="M10.5614 6.97211C10.5168 5.28457 9.35642 3.77253 8.01758 3.31885" stroke="#16AD82" stroke-width="2" stroke-miterlimit="10" stroke-linecap="round" stroke-linejoin="round"/>
<path d="M13.3018 6.97211C13.3464 5.28457 14.5068 3.77253 15.8456 3.31885" stroke="#16AD82" stroke-width="2" stroke-miterlimit="10" stroke-linecap="round" stroke-linejoin="round"/>
<path d="M11.9316 6.97068V1.60376" stroke="#16AD82" stroke-width="2" stroke-miterlimit="10" stroke-linecap="round" stroke-linejoin="round"/>
<path d="M43.9974 22.241L43.7559 22.4825" stroke="#16AD82" stroke-width="2" stroke-miterlimit="10" stroke-linecap="round" stroke-linejoin="round"/>
<path d="M19.5022 27.3218L19.2607 27.5633" stroke="#16AD82" stroke-width="2" stroke-miterlimit="10" stroke-linecap="round" stroke-linejoin="round"/>
<path d="M24.3929 24.2651L24.1514 24.5066" stroke="#16AD82" stroke-width="2" stroke-miterlimit="10" stroke-linecap="round" stroke-linejoin="round"/>
<path d="M47.179 27.3218L46.9375 27.5633" stroke="#16AD82" stroke-width="2" stroke-miterlimit="10" stroke-linecap="round" stroke-linejoin="round"/>
<path d="M11.7434 24.3762L11.502 24.6177" stroke="#16AD82" stroke-width="2" stroke-miterlimit="10" stroke-linecap="round" stroke-linejoin="round"/>
<path d="M35.5472 27.3218L35.3057 27.5633" stroke="#16AD82" stroke-width="2" stroke-miterlimit="10" stroke-linecap="round" stroke-linejoin="round"/>
<path d="M45.7798 33.5156H53.1621C53.7492 33.5156 54.225 33.0403 54.225 32.4539V8.03367C54.225 7.44727 53.7492 6.97192 53.1621 6.97192H21.5498" stroke="#16AD82" stroke-width="2" stroke-miterlimit="10" stroke-linecap="round" stroke-linejoin="round"/>
<path d="M17.8287 6.97192H2.46037C1.87333 6.97192 1.39746 7.44727 1.39746 8.03367V32.4539C1.39746 33.0403 1.87333 33.5156 2.46037 33.5156H42.0587" stroke="#16AD82" stroke-width="2" stroke-miterlimit="10" stroke-linecap="round" stroke-linejoin="round"/>
</svg>
